# xmcd
#
# Track frame offsets: 
#        150
#        30167
#        55013
#        79620
#        102397
#        128775
#        156530
#        182000
#        214211
#        244381
#
# Disc length: 3656 seconds
#
# Revision: 0
# Processed by: cddbd v1.5.2PL0 Copyright (c) Steve Scherf et al.
# Submitted via: ExactAudioCopy v1.0b3
#
DISCID=820e460a
DTITLE=Sebstien Charlier - La Danse Du Chat
DYEAR=2011
DGENRE=Blues
TTITLE0=La Promesse De Clovis
TTITLE1=La Danse Du Chat
TTITLE2=African Waltz
TTITLE3=Le Blues De Flamel
TTITLE4=Un Chameau dans le Desert
TTITLE5=Sixty Bluesy Candles
TTITLE6=I Dont Need No Doctor
TTITLE7=Une Semaine Sans Fin
TTITLE8=Keltik Blues
TTITLE9=Evening At The St John
EXTD=
EXTT0=
EXTT1=
EXTT2=
EXTT3=
EXTT4=
EXTT5=
EXTT6=
EXTT7=
EXTT8=
EXTT9=
PLAYORDER=
